<?xml version="1.0" encoding="UTF-8"?>
<svg xmlns="http://www.w3.org/2000/svg" xmlns:xlink="http://www.w3.org/1999/xlink" width="375pt" height="374.999991pt" viewBox="0 0 375 374.999991" version="1.2">
<defs>
<clipPath id="clip1">
  <path d="M 255 131 L 369 131 L 369 363.75 L 255 363.75 Z M 255 131 "/>
</clipPath>
<clipPath id="clip2">
  <path d="M 54 131 L 281 131 L 281 363.75 L 54 363.75 Z M 54 131 "/>
</clipPath>
<clipPath id="clip3">
  <path d="M 3 131 L 281 131 L 281 363.75 L 3 363.75 Z M 3 131 "/>
</clipPath>
<clipPath id="clip4">
  <path d="M 79 344 L 149 344 L 149 363.75 L 79 363.75 Z M 79 344 "/>
</clipPath>
<clipPath id="clip5">
  <path d="M 148 344 L 363 344 L 363 363.75 L 148 363.75 Z M 148 344 "/>
</clipPath>
</defs>
<g id="surface1">
<g clip-path="url(#clip1)" clip-rule="nonzero">
<path style=" stroke:none;fill-rule:nonzero;fill:rgb(97.24884%,61.569214%,82.348633%);fill-opacity:1;" d="M 342.746094 225.832031 L 332.351562 170.117188 C 328.195312 147.84375 308.757812 131.703125 286.113281 131.703125 L 255.585938 131.703125 L 274.800781 232.007812 L 300.035156 363.78125 L 368.472656 363.78125 L 342.746094 225.832031 "/>
</g>
<g clip-path="url(#clip2)" clip-rule="nonzero">
<path style=" stroke:none;fill-rule:nonzero;fill:rgb(23.919678%,73.728943%,53.729248%);fill-opacity:1;" d="M 280.671875 363.78125 L 280.671875 131.703125 L 54.894531 131.703125 L 54.894531 363.78125 L 280.671875 363.78125 "/>
</g>
<g clip-path="url(#clip3)" clip-rule="nonzero">
<path style=" stroke:none;fill-rule:nonzero;fill:rgb(97.24884%,61.569214%,82.348633%);fill-opacity:1;" d="M 12.964844 225.957031 L 3.367188 311.5 C 0.242188 339.378906 22.054688 363.78125 50.117188 363.78125 L 280.671875 363.78125 L 280.671875 301.917969 L 73.710938 301.917969 L 81.414062 232.183594 L 88.316406 169.777344 C 90.566406 149.46875 74.660156 131.703125 54.214844 131.703125 C 45.480469 131.703125 37.445312 134.980469 31.347656 140.4375 C 25.246094 145.882812 21.089844 153.511719 20.121094 162.191406 L 12.964844 225.957031 "/>
</g>
<path style=" stroke:none;fill-rule:nonzero;fill:rgb(23.919678%,73.728943%,53.729248%);fill-opacity:1;" d="M 332.351562 170.117188 L 342.746094 225.832031 L 274.800781 232.007812 L 255.585938 131.703125 L 286.113281 131.703125 C 308.757812 131.703125 328.195312 147.84375 332.351562 170.117188 "/>
<path style=" stroke:none;fill-rule:nonzero;fill:rgb(23.919678%,73.728943%,53.729248%);fill-opacity:1;" d="M 54.214844 131.703125 C 74.660156 131.703125 90.566406 149.46875 88.316406 169.777344 L 81.414062 232.183594 L 12.964844 225.957031 L 20.121094 162.191406 C 21.089844 153.511719 25.246094 145.882812 31.347656 140.4375 C 37.445312 134.980469 45.480469 131.703125 54.214844 131.703125 "/>
<path style=" stroke:none;fill-rule:nonzero;fill:rgb(18.03894%,58.039856%,43.919373%);fill-opacity:1;" d="M 81.894531 232.046875 C 81.78125 232.046875 81.664062 232.042969 81.550781 232.027344 C 79.828125 231.84375 78.585938 230.296875 78.769531 228.570312 L 85.195312 169.4375 C 85.382812 167.71875 86.925781 166.480469 88.65625 166.660156 C 90.375 166.847656 91.617188 168.398438 91.433594 170.117188 L 85.003906 229.25 C 84.832031 230.855469 83.472656 232.046875 81.894531 232.046875 "/>
<path style=" stroke:none;fill-rule:nonzero;fill:rgb(18.03894%,58.039856%,43.919373%);fill-opacity:1;" d="M 280.671875 231.261719 C 278.9375 231.261719 277.535156 229.859375 277.535156 228.128906 L 277.535156 162.800781 C 277.535156 161.066406 278.9375 159.664062 280.671875 159.664062 C 282.40625 159.664062 283.808594 161.066406 283.808594 162.800781 L 283.808594 228.128906 C 283.808594 229.859375 282.40625 231.261719 280.671875 231.261719 "/>
<path style=" stroke:none;fill-rule:nonzero;fill:rgb(40.388489%,47.059631%,76.858521%);fill-opacity:1;" d="M 362.203125 344.933594 L 148.96875 344.933594 L 161.511719 206.960938 L 374.746094 206.960938 L 362.203125 344.933594 "/>
<g clip-path="url(#clip4)" clip-rule="nonzero">
<path style=" stroke:none;fill-rule:nonzero;fill:rgb(26.269531%,33.729553%,68.629456%);fill-opacity:1;" d="M 148.96875 363.75 L 79.980469 363.75 L 79.980469 344.933594 L 148.96875 344.933594 L 148.96875 363.75 "/>
</g>
<path style=" stroke:none;fill-rule:nonzero;fill:rgb(30.589294%,38.038635%,71.369934%);fill-opacity:1;" d="M 286.941406 275.949219 C 286.941406 286.339844 278.519531 294.761719 268.128906 294.761719 C 257.738281 294.761719 249.3125 286.339844 249.3125 275.949219 C 249.3125 265.558594 257.738281 257.132812 268.128906 257.132812 L 268.128906 275.949219 L 286.941406 275.949219 "/>
<g clip-path="url(#clip5)" clip-rule="nonzero">
<path style=" stroke:none;fill-rule:nonzero;fill:rgb(30.589294%,38.038635%,71.369934%);fill-opacity:1;" d="M 362.203125 363.75 L 148.96875 363.75 L 148.96875 344.933594 L 362.203125 344.933594 L 362.203125 363.75 "/>
</g>
<path style=" stroke:none;fill-rule:nonzero;fill:rgb(97.24884%,61.569214%,82.348633%);fill-opacity:1;" d="M 202.277344 145.875 L 202.277344 68.988281 L 155.363281 68.988281 L 155.363281 145.875 C 155.363281 158.832031 165.863281 169.332031 178.820312 169.332031 C 191.777344 169.332031 202.277344 158.832031 202.277344 145.875 "/>
<path style=" stroke:none;fill-rule:nonzero;fill:rgb(90.979004%,31.369019%,60.389709%);fill-opacity:1;" d="M 174.054688 94.074219 L 202.277344 94.074219 L 202.277344 131.703125 C 186.691406 131.703125 174.054688 119.066406 174.054688 103.480469 L 174.054688 94.074219 "/>
<path style=" stroke:none;fill-rule:nonzero;fill:rgb(97.24884%,61.569214%,82.348633%);fill-opacity:1;" d="M 224.226562 31.359375 L 224.226562 94.855469 C 224.226562 108.277344 213.347656 119.160156 199.925781 119.160156 C 175.3125 119.160156 155.363281 99.207031 155.363281 74.597656 L 155.363281 31.359375 L 224.226562 31.359375 "/>
<path style=" stroke:none;fill-rule:nonzero;fill:rgb(15.289307%,24.708557%,52.549744%);fill-opacity:1;" d="M 243.042969 12.542969 L 243.042969 27.207031 C 243.042969 43.355469 229.953125 56.445312 213.804688 56.445312 C 208.324219 56.445312 202.949219 54.902344 198.300781 51.992188 L 167.785156 32.902344 L 167.785156 37.628906 C 167.785156 51.484375 156.550781 62.714844 142.699219 62.714844 L 142.699219 36.605469 C 142.699219 16.390625 159.085938 0 179.304688 0 C 183.921875 0 188.496094 0.871094 192.789062 2.574219 L 217.957031 12.542969 L 243.042969 12.542969 "/>
<path style=" stroke:none;fill-rule:nonzero;fill:rgb(97.24884%,61.569214%,82.348633%);fill-opacity:1;" d="M 142.699219 62.714844 C 142.699219 55.789062 148.3125 50.171875 155.242188 50.171875 C 162.167969 50.171875 167.785156 55.789062 167.785156 62.714844 C 167.785156 69.640625 162.167969 75.257812 155.242188 75.257812 C 148.3125 75.257812 142.699219 69.640625 142.699219 62.714844 "/>
<path style=" stroke:none;fill-rule:nonzero;fill:rgb(90.979004%,31.369019%,60.389709%);fill-opacity:1;" d="M 205.414062 103.480469 C 200.53125 103.480469 195.941406 101.578125 192.492188 98.128906 L 190.652344 96.289062 C 189.429688 95.066406 189.429688 93.082031 190.652344 91.855469 C 191.875 90.632812 193.867188 90.632812 195.085938 91.855469 L 196.925781 93.695312 C 199.191406 95.960938 202.207031 97.210938 205.414062 97.210938 C 207.144531 97.210938 208.550781 98.613281 208.550781 100.34375 C 208.550781 102.078125 207.144531 103.480469 205.414062 103.480469 "/>
<path style=" stroke:none;fill-rule:nonzero;fill:rgb(90.979004%,31.369019%,60.389709%);fill-opacity:1;" d="M 211.683594 84.664062 L 205.414062 84.664062 C 203.679688 84.664062 202.277344 83.261719 202.277344 81.53125 C 202.277344 79.796875 203.679688 78.394531 205.414062 78.394531 L 208.550781 78.394531 L 208.550781 68.988281 C 208.550781 67.253906 209.953125 65.851562 211.683594 65.851562 C 213.417969 65.851562 214.820312 67.253906 214.820312 68.988281 L 214.820312 81.53125 C 214.820312 83.261719 213.417969 84.664062 211.683594 84.664062 "/>
</g>
</svg>
